<svg xmlns="http://www.w3.org/2000/svg" viewBox="0 0 24 24" fill="none" stroke="#0F4E8C" stroke-width="2" stroke-linecap="round" stroke-linejoin="round"><g transform="rotate(205 12 12)"><path d="M12.2 2.5c3.1-.2 6.3 1.5 7.7 4.3 1.5 3 1 6.8-1.2 9.3-2.2 2.4-5.7 3.4-8.8 2.4-3-1-5.3-3.9-5.4-7-.2-3.2 1.8-6.3 4.5-7.8 1-.6 2.1-1.1 3.2-1.2z" fill="#0F4E8C" opacity="0.14" stroke="none"/></g><path d="M3.7 6.4 9 4.6l6 2 5.3-1.9v12.9L15 19.4l-6-2-5.3 1.9V6.4z"/><line x1="9" y1="4.6" x2="9" y2="17.4"/><line x1="15" y1="6.6" x2="15" y2="19.4"/><circle cx="6.4" cy="9.4" r="0.75" fill="#0F4E8C" stroke="none"/></svg>
