<svg xmlns="http://www.w3.org/2000/svg" viewBox="0 0 24 24" fill="none" stroke="#0F4E8C" stroke-width="2" stroke-linecap="round" stroke-linejoin="round"><g transform="rotate(252 12 12)"><path d="M12 2.6c3.4-.5 6.9 1.2 8.3 4.2 1.3 2.9.6 6.6-1.4 9.1-2 2.5-5.2 3.9-8.2 3.2-3-.7-5.7-3.4-6.4-6.5-.6-3.1.8-6.6 3.2-8.3 1.4-1 3-1.5 4.5-1.7z" fill="#0F4E8C" opacity="0.14" stroke="none"/></g><path d="M12 20.8c-3.9-3.6-6.2-6.8-6.2-10a6.2 6.2 0 0 1 12.4 0c0 3.2-2.3 6.4-6.2 10z"/><line x1="4.8" y1="4.8" x2="19.2" y2="19.2"/></svg>
