<svg xmlns="http://www.w3.org/2000/svg" viewBox="0 0 24 24" fill="none" stroke="#0F4E8C" stroke-width="2" stroke-linecap="round" stroke-linejoin="round"><g transform="rotate(18 12 12)"><path d="M12 2.6c3.4-.5 6.9 1.2 8.3 4.2 1.3 2.9.6 6.6-1.4 9.1-2 2.5-5.2 3.9-8.2 3.2-3-.7-5.7-3.4-6.4-6.5-.6-3.1.8-6.6 3.2-8.3 1.4-1 3-1.5 4.5-1.7z" fill="#0F4E8C" opacity="0.14" stroke="none"/></g><rect x="3.7" y="4.7" width="16.6" height="14.6" rx="1.9"/><line x1="6.7" y1="8.2" x2="17.3" y2="8.2"/><rect x="6.7" y="11.2" width="4.1" height="4.8"/><line x1="13.4" y1="12" x2="17.3" y2="12"/><line x1="13.4" y1="15.2" x2="17.3" y2="15.2"/></svg>
