<svg xmlns="http://www.w3.org/2000/svg" viewBox="0 0 24 24" fill="none" stroke="#0F4E8C" stroke-width="2" stroke-linecap="round" stroke-linejoin="round"><g transform="rotate(222 12 12)"><path d="M12 2.6c3.4-.5 6.9 1.2 8.3 4.2 1.3 2.9.6 6.6-1.4 9.1-2 2.5-5.2 3.9-8.2 3.2-3-.7-5.7-3.4-6.4-6.5-.6-3.1.8-6.6 3.2-8.3 1.4-1 3-1.5 4.5-1.7z" fill="#0F4E8C" opacity="0.14" stroke="none"/></g><path d="M4.7 17.3 3.7 8.2l4.6 3.2L12 5.8l3.7 5.6 4.6-3.2-1 9.1H4.7z"/><circle cx="8.3" cy="14.4" r="0.85" fill="#0F4E8C" stroke="none"/><circle cx="12" cy="13.6" r="0.95" fill="#0F4E8C" stroke="none"/><circle cx="15.7" cy="14.4" r="0.85" fill="#0F4E8C" stroke="none"/></svg>
