<svg xmlns="http://www.w3.org/2000/svg" viewBox="0 0 24 24" fill="none" stroke="#0F4E8C" stroke-width="2" stroke-linecap="round" stroke-linejoin="round"><g transform="rotate(311 12 12)"><path d="M12.4 3c3.2-.4 6.5 1.4 7.8 4.2 1.3 2.9.6 6.5-1.5 8.9-2.1 2.4-5.5 3.6-8.4 2.8-3-.8-5.4-3.6-5.9-6.7-.5-3.1 1-6.4 3.5-8 1.3-.8 2.9-1.1 4.5-1.2z" fill="#0F4E8C" opacity="0.14" stroke="none"/></g><line x1="6.5" y1="4" x2="6.5" y2="20"/><line x1="12" y1="4" x2="12" y2="20"/><line x1="17.5" y1="4" x2="17.5" y2="20"/><circle cx="6.5" cy="8.4" r="1.9" fill="#0F4E8C" stroke="none"/><circle cx="12" cy="14.6" r="1.9" fill="#0F4E8C" stroke="none"/><circle cx="17.5" cy="10.2" r="1.9" fill="#0F4E8C" stroke="none"/></svg>
